<svg width="32" height="20" viewBox="0 0 32 20" fill="none" xmlns="http://www.w3.org/2000/svg">
<path fill-rule="evenodd" clip-rule="evenodd" d="M0 0H32V20H0V0Z" fill="white"/>
<path d="M25.6408 8.41211H17.9768L17.1938 9.30811L14.6688 12.2061L13.8858 13.1021H6.3318L7.0958 12.1961L7.4578 11.7681L8.2208 10.8611H4.7468C4.1108 10.8611 3.5918 11.4091 3.5918 12.0661V14.6161C3.5918 15.2821 4.1118 15.8201 4.7468 15.8201H18.0748C18.7118 15.8201 19.5828 15.4221 20.0028 14.9241L22.0188 12.5941L25.6408 8.41211Z" fill="#005498"/>
<path d="M27.177 5.69383C27.813 5.69383 28.331 6.24183 28.331 6.89883V9.43783C28.331 10.1048 27.813 10.6418 27.177 10.6418H23.711L24.484 9.74583L24.866 9.29783L25.639 8.40183H17.977L13.896 13.0818H6.29297L11.744 6.80883L11.95 6.56983C12.38 6.08183 13.251 5.67383 13.887 5.67383H27.177V5.69383Z" fill="#FFBF00"/>
</svg>
